<svg width="171" height="40" viewBox="0 0 171 40" fill="none" xmlns="http://www.w3.org/2000/svg">
<mask id="mask0_17015_5834" style="mask-type:luminance" maskUnits="userSpaceOnUse" x="0" y="0" width="171" height="40">
<path d="M170.5 0.5H0.5V39.034H170.5V0.5Z" fill="white"/>
</mask>
<g mask="url(#mask0_17015_5834)">
<path fill-rule="evenodd" clip-rule="evenodd" d="M72.3115 4.73878C75.8849 4.73878 78.7535 5.6058 80.6608 7.57874C82.5681 9.55169 83.4275 12.4764 83.4275 16.1449V23.0039C83.4275 26.6723 82.5869 29.6164 80.6834 31.5854C78.7799 33.5545 75.9076 34.41 72.3115 34.41H62.8316C62.4585 34.4411 62.0834 34.3887 61.7322 34.2564C61.381 34.1241 61.0623 33.9151 60.7983 33.6441C60.5341 33.373 60.331 33.0463 60.2031 32.6868C60.075 32.3272 60.0253 31.9435 60.0573 31.5623V7.58645C60.0414 7.20638 60.1 6.82693 60.2294 6.47029C60.3589 6.11364 60.5567 5.78698 60.8111 5.50946C61.0817 5.24802 61.4011 5.04503 61.7502 4.91262C62.0993 4.7802 62.4709 4.72108 62.8428 4.73878H72.3115ZM77.3361 26.6492C77.2045 26.9961 77.0049 27.3118 76.7494 27.5768C76.494 27.8419 76.1883 28.0508 75.851 28.1906C74.7164 28.5971 73.5165 28.7789 72.3153 28.7262H65.6096V10.4341H72.3115C73.9173 10.4341 75.067 10.646 75.8398 10.9851C76.1821 11.1206 76.4931 11.3278 76.7527 11.5932C77.0123 11.8586 77.2149 12.1765 77.3475 12.5265V12.5457C77.6792 13.3357 77.8828 14.511 77.8828 16.1449V23.0039C77.9324 24.2437 77.7469 25.4816 77.3361 26.6492Z" fill="#242424"/>
<path fill-rule="evenodd" clip-rule="evenodd" d="M14.1303 18.7421L6.05251 6.34176C5.76263 5.85793 5.3575 5.45712 4.87498 5.17678C4.39245 4.89645 3.84827 4.74574 3.29332 4.73874C2.92032 4.72176 2.54777 4.78119 2.19756 4.91353C1.84736 5.04588 1.52657 5.24848 1.25407 5.50942C0.997938 5.78736 0.799182 6.11519 0.669661 6.47336C0.540139 6.83152 0.482503 7.21268 0.500191 7.59411V31.5623C0.483526 31.9425 0.541662 32.3221 0.671158 32.6789C0.800652 33.0357 0.998871 33.3622 1.25407 33.6393C1.52746 33.9012 1.84948 34.1043 2.20105 34.2367C2.55263 34.369 2.92661 34.428 3.30086 34.4099C3.67453 34.4279 4.04791 34.3689 4.39886 34.2365C4.74981 34.1041 5.07117 33.9011 5.34387 33.6393C5.6 33.3614 5.79876 33.0335 5.92828 32.6754C6.0578 32.3172 6.11544 31.936 6.09775 31.5546V16.5726L11.3372 24.4605C11.9328 25.3468 12.7771 26.052 13.8929 26.052C14.4758 26.0633 15.052 25.9232 15.5675 25.6449C16.0831 25.3666 16.5211 24.959 16.8405 24.4605L22.0574 16.6342V31.5623C22.0436 31.9458 22.1056 32.3283 22.2396 32.6868C22.3738 33.0453 22.5771 33.3724 22.8376 33.6488C23.0982 33.9251 23.4106 34.1449 23.7561 34.295C24.1016 34.4452 24.4732 34.5225 24.8487 34.5225C25.224 34.5225 25.5956 34.4452 25.9411 34.295C26.2867 34.1449 26.5991 33.9251 26.8596 33.6488C27.1202 33.3724 27.3236 33.0453 27.4576 32.6868C27.5917 32.3283 27.6537 31.9458 27.6399 31.5623V7.58641C27.6744 6.87171 27.4667 6.16672 27.0519 5.59034C26.8215 5.31148 26.5322 5.08988 26.2056 4.94233C25.8791 4.79478 25.5239 4.72516 25.1671 4.73874C24.578 4.71768 23.9939 4.85587 23.4737 5.13935C22.9535 5.42283 22.5157 5.84157 22.2044 6.35332L14.1303 18.7421Z" fill="#242424"/>
<path fill-rule="evenodd" clip-rule="evenodd" d="M92.2238 4.16844C92.2189 3.69175 92.3057 3.21873 92.4796 2.77638C92.6535 2.33403 92.9109 1.93102 93.2371 1.59036C93.5633 1.24971 93.952 0.978089 94.3809 0.791002C94.8099 0.603917 95.2706 0.505034 95.7369 0.5H159.568C160.242 0.503788 160.9 0.7056 161.465 1.08138C162.03 1.45715 162.476 1.99104 162.753 2.61938L170.254 18.611C170.414 18.9745 170.497 19.3685 170.497 19.767C170.497 20.1656 170.414 20.5595 170.254 20.923L162.749 36.9147C162.474 37.5424 162.027 38.0759 161.463 38.4517C160.899 38.8274 160.241 39.0296 159.568 39.034H95.7369C95.2706 39.0291 94.8099 38.9302 94.3809 38.7431C93.952 38.556 93.5633 38.2844 93.2371 37.9437C92.9109 37.603 92.6535 37.2001 92.4796 36.7577C92.3057 36.3153 92.2189 35.8423 92.2238 35.3656V4.16844ZM116.103 13.2471C115.917 13.1418 115.711 13.0793 115.498 13.0641C115.286 13.0487 115.074 13.081 114.875 13.1585C114.501 13.3311 114.2 13.6363 114.03 14.0177L109.526 24.6531L105.424 14.1102C105.28 13.6883 104.98 13.341 104.588 13.143C104.391 13.0719 104.181 13.0447 103.973 13.0634C103.765 13.0819 103.563 13.146 103.382 13.251C103.178 13.3167 102.99 13.4259 102.831 13.5714C102.671 13.717 102.545 13.8953 102.458 14.0949C102.325 14.5272 102.362 14.9958 102.56 15.4011L107.81 28.8881C107.94 29.242 108.164 29.5526 108.455 29.7859C108.74 30.0038 109.088 30.1178 109.442 30.1096C109.816 30.1226 110.184 30.0221 110.502 29.8205C110.804 29.6001 111.036 29.2931 111.17 28.9382L116.849 15.4319C117.046 15.0346 117.087 14.5763 116.966 14.1488C116.888 13.9475 116.772 13.7641 116.623 13.6093C116.475 13.4545 116.299 13.3314 116.103 13.2471ZM150.571 7.5633H151.45C151.754 7.57038 152.043 7.69971 152.254 7.92331C152.466 8.14689 152.583 8.44672 152.581 8.75785V9.67497C152.583 9.98571 152.466 10.2851 152.254 10.5081C152.042 10.7311 151.753 10.8596 151.45 10.8656H150.571C150.267 10.8606 149.977 10.7324 149.765 10.5092C149.553 10.286 149.436 9.986 149.44 9.67497V8.75785C149.436 8.44643 149.553 8.14603 149.764 7.92221C149.977 7.6984 150.267 7.56938 150.571 7.5633ZM151.031 13.0582C150.819 13.0437 150.607 13.0738 150.407 13.1467C150.207 13.2197 150.025 13.3338 149.87 13.4822C149.585 13.8183 149.442 14.2559 149.47 14.6998V28.468C149.442 28.9119 149.585 29.3495 149.87 29.6857C150.197 29.9596 150.607 30.1093 151.029 30.1093C151.452 30.1093 151.862 29.9596 152.188 29.6857C152.475 29.3501 152.619 28.9124 152.591 28.468V14.6998C152.619 14.2554 152.475 13.8177 152.188 13.4822C152.034 13.3341 151.852 13.2201 151.653 13.1472C151.454 13.0743 151.242 13.044 151.031 13.0582ZM141.685 6.75522C141.884 6.68235 142.096 6.6518 142.308 6.66545C142.521 6.64725 142.736 6.67374 142.938 6.74331C143.141 6.81289 143.329 6.92408 143.488 7.07006C143.772 7.4071 143.914 7.8441 143.887 8.28774V28.4603C143.914 28.904 143.772 29.3409 143.488 29.678C143.161 29.9523 142.75 30.1021 142.327 30.1021C141.904 30.1021 141.493 29.9523 141.165 29.678C140.954 29.4427 140.821 29.1442 140.788 28.8264C140.315 29.2009 139.782 29.4901 139.213 29.6818C138.368 29.9898 137.472 30.1323 136.574 30.1019H135.395C133.31 30.1019 131.705 29.5701 130.638 28.4603C129.582 27.339 129.081 25.6474 129.081 23.4509V19.7092C129.081 17.5013 129.582 15.8096 130.638 14.6998C131.705 13.59 133.31 13.0582 135.395 13.0582H140.748V8.307C140.718 7.86315 140.862 7.42553 141.147 7.08933C141.302 6.94178 141.485 6.8281 141.685 6.75522ZM132.851 26.1406C133.265 26.5683 134.083 26.8265 135.395 26.8265H136.574C137.585 26.8611 138.59 26.6785 139.526 26.2908C139.885 26.1665 140.207 25.9518 140.465 25.6666C140.652 25.4398 140.753 25.1507 140.748 24.8535V16.3452H135.395C134.072 16.3452 133.258 16.6073 132.851 17.0427C132.443 17.4704 132.202 18.3259 132.202 19.7131V23.4432C132.202 24.8535 132.436 25.7128 132.851 26.1406ZM122.839 7.5633H121.961C121.657 7.57038 121.368 7.69971 121.156 7.92331C120.944 8.14689 120.827 8.44672 120.83 8.75785V9.67497C120.827 9.98571 120.945 10.2851 121.157 10.5081C121.369 10.7311 121.657 10.8596 121.961 10.8656H122.839C123.143 10.8596 123.433 10.7311 123.645 10.5081C123.856 10.2851 123.974 9.98571 123.97 9.67497V8.75785C123.974 8.44672 123.856 8.14689 123.645 7.92331C123.433 7.69971 123.144 7.57038 122.839 7.5633ZM121.742 13.148C121.941 13.0751 122.152 13.0446 122.364 13.0582C122.576 13.0446 122.788 13.0751 122.988 13.148C123.187 13.221 123.37 13.3346 123.525 13.4822C123.811 13.8184 123.954 14.2559 123.925 14.6999V28.468C123.954 28.9119 123.811 29.3495 123.525 29.6857C123.198 29.9599 122.788 30.1098 122.364 30.1098C121.941 30.1098 121.531 29.9599 121.203 29.6857C120.919 29.3495 120.775 28.9119 120.804 28.468V14.6999C120.775 14.2559 120.919 13.8184 121.203 13.4822C121.359 13.3346 121.541 13.221 121.742 13.148Z" fill="#E0B000"/>
<path d="M32.5403 8.0141C32.5292 7.15795 32.8508 6.33227 33.4345 5.71822C34.0182 5.10417 34.8164 4.7519 35.6538 4.73871H52.0432C52.8807 4.7519 53.6788 5.10417 54.2625 5.71822C54.8463 6.33227 55.1678 7.15795 55.1567 8.0141C55.1678 8.87025 54.8463 9.69594 54.2625 10.31C53.6788 10.9241 52.8807 11.2763 52.0432 11.2895H35.6538C34.8164 11.2763 34.0182 10.9241 33.4345 10.31C32.8508 9.69594 32.5292 8.87025 32.5403 8.0141Z" fill="#242424"/>
<path d="M32.5403 31.1346C32.5292 30.2784 32.8508 29.4527 33.4345 28.8387C34.0182 28.2246 34.8164 27.8724 35.6538 27.8592H52.0432C52.893 27.8592 53.7079 28.2042 54.3088 28.8185C54.9096 29.4328 55.2472 30.2659 55.2472 31.1346C55.2472 32.0033 54.9096 32.8364 54.3088 33.4506C53.7079 34.0649 52.893 34.4099 52.0432 34.4099H35.6538C34.8164 34.3968 34.0182 34.0445 33.4345 33.4304C32.8508 32.8164 32.5292 31.9907 32.5403 31.1346Z" fill="#242424"/>
<path d="M32.5403 19.5744C32.5292 18.7182 32.8508 17.8926 33.4345 17.2785C34.0182 16.6644 34.8164 16.3122 35.6538 16.299H52.0432C52.893 16.299 53.7079 16.6441 54.3088 17.2583C54.9096 17.8726 55.2472 18.7057 55.2472 19.5744C55.2472 20.4431 54.9096 21.2762 54.3088 21.8904C53.7079 22.5047 52.893 22.8498 52.0432 22.8498H35.6538C34.8164 22.8366 34.0182 22.4843 33.4345 21.8703C32.8508 21.2562 32.5292 20.4305 32.5403 19.5744Z" fill="#242424"/>
</g>
</svg>
