<svg width="400" height="68" viewBox="0 0 400 68" fill="none" xmlns="http://www.w3.org/2000/svg">
<rect x="0.65" y="0.65" width="398.7" height="66.7" rx="23.35" fill="#F5F5F5"/>
<rect x="0.65" y="0.65" width="398.7" height="66.7" rx="23.35" stroke="#D9D9D9" stroke-width="1.3"/>
<path d="M30.704 40.304C29.648 40.304 28.7413 40.1173 27.984 39.744C27.2267 39.3707 26.608 38.8853 26.128 38.288C25.6587 37.6907 25.312 37.04 25.088 36.336C24.864 35.632 24.752 34.9547 24.752 34.304V33.952C24.752 33.2267 24.864 32.512 25.088 31.808C25.3227 31.104 25.68 30.464 26.16 29.888C26.64 29.312 27.248 28.8533 27.984 28.512C28.7307 28.16 29.6107 27.984 30.624 27.984C31.68 27.984 32.5973 28.176 33.376 28.56C34.1653 28.9333 34.7947 29.4667 35.264 30.16C35.7333 30.8427 36.016 31.6427 36.112 32.56H33.824C33.7387 32.0267 33.5467 31.5787 33.248 31.216C32.96 30.8427 32.592 30.5653 32.144 30.384C31.696 30.192 31.1893 30.096 30.624 30.096C30.048 30.096 29.536 30.1973 29.088 30.4C28.64 30.592 28.2667 30.8693 27.968 31.232C27.6693 31.5947 27.44 32.0213 27.28 32.512C27.1307 33.0027 27.056 33.5467 27.056 34.144C27.056 34.72 27.1307 35.2533 27.28 35.744C27.44 36.2347 27.6747 36.6667 27.984 37.04C28.2933 37.4027 28.672 37.6853 29.12 37.888C29.5787 38.0907 30.1067 38.192 30.704 38.192C31.5787 38.192 32.3147 37.9787 32.912 37.552C33.52 37.1147 33.888 36.5067 34.016 35.728H36.304C36.1973 36.56 35.9147 37.3227 35.456 38.016C34.9973 38.7093 34.368 39.264 33.568 39.68C32.768 40.096 31.8133 40.304 30.704 40.304ZM40.4315 40L36.7035 28.32H39.0555L42.1435 38.432L41.4715 38.112H43.1995L42.5115 38.432L45.3595 28.32H47.6315L44.1755 40H40.4315Z" fill="#1E1E1E"/>
<path d="M74.5 36.5V39.8333C74.5 40.2754 74.3244 40.6993 74.0118 41.0118C73.6993 41.3244 73.2754 41.5 72.8333 41.5H61.1667C60.7246 41.5 60.3007 41.3244 59.9882 41.0118C59.6756 40.6993 59.5 40.2754 59.5 39.8333V36.5M62.8333 32.3333L67 36.5M67 36.5L71.1667 32.3333M67 36.5V26.5" stroke="#1E1E1E" stroke-width="1.6" stroke-linecap="round" stroke-linejoin="round"/>
<path d="M178.704 40.304C177.648 40.304 176.741 40.1173 175.984 39.744C175.227 39.3707 174.608 38.8853 174.128 38.288C173.659 37.6907 173.312 37.04 173.088 36.336C172.864 35.632 172.752 34.9547 172.752 34.304V33.952C172.752 33.2267 172.864 32.512 173.088 31.808C173.323 31.104 173.68 30.464 174.16 29.888C174.64 29.312 175.248 28.8533 175.984 28.512C176.731 28.16 177.611 27.984 178.624 27.984C179.68 27.984 180.597 28.176 181.376 28.56C182.165 28.9333 182.795 29.4667 183.264 30.16C183.733 30.8427 184.016 31.6427 184.112 32.56H181.824C181.739 32.0267 181.547 31.5787 181.248 31.216C180.96 30.8427 180.592 30.5653 180.144 30.384C179.696 30.192 179.189 30.096 178.624 30.096C178.048 30.096 177.536 30.1973 177.088 30.4C176.64 30.592 176.267 30.8693 175.968 31.232C175.669 31.5947 175.44 32.0213 175.28 32.512C175.131 33.0027 175.056 33.5467 175.056 34.144C175.056 34.72 175.131 35.2533 175.28 35.744C175.44 36.2347 175.675 36.6667 175.984 37.04C176.293 37.4027 176.672 37.6853 177.12 37.888C177.579 38.0907 178.107 38.192 178.704 38.192C179.579 38.192 180.315 37.9787 180.912 37.552C181.52 37.1147 181.888 36.5067 182.016 35.728H184.304C184.197 36.56 183.915 37.3227 183.456 38.016C182.997 38.7093 182.368 39.264 181.568 39.68C180.768 40.096 179.813 40.304 178.704 40.304ZM189.901 40.304C189.133 40.304 188.456 40.1813 187.869 39.936C187.283 39.6907 186.787 39.36 186.381 38.944C185.976 38.5173 185.667 38.0373 185.453 37.504C185.251 36.9707 185.149 36.416 185.149 35.84V35.504C185.149 34.9067 185.256 34.3413 185.469 33.808C185.693 33.264 186.008 32.784 186.413 32.368C186.829 31.9413 187.331 31.6107 187.917 31.376C188.504 31.1307 189.165 31.008 189.901 31.008C190.637 31.008 191.299 31.1307 191.885 31.376C192.472 31.6107 192.968 31.9413 193.373 32.368C193.789 32.784 194.104 33.264 194.317 33.808C194.531 34.3413 194.637 34.9067 194.637 35.504V35.84C194.637 36.416 194.531 36.9707 194.317 37.504C194.115 38.0373 193.811 38.5173 193.405 38.944C193 39.36 192.504 39.6907 191.917 39.936C191.331 40.1813 190.659 40.304 189.901 40.304ZM189.901 38.4C190.445 38.4 190.904 38.2827 191.277 38.048C191.651 37.8027 191.933 37.4773 192.125 37.072C192.317 36.656 192.413 36.1867 192.413 35.664C192.413 35.1307 192.312 34.6613 192.109 34.256C191.917 33.84 191.629 33.5147 191.245 33.28C190.872 33.0347 190.424 32.912 189.901 32.912C189.379 32.912 188.925 33.0347 188.541 33.28C188.168 33.5147 187.88 33.84 187.677 34.256C187.475 34.6613 187.373 35.1307 187.373 35.664C187.373 36.1867 187.469 36.656 187.661 37.072C187.864 37.4773 188.152 37.8027 188.525 38.048C188.899 38.2827 189.357 38.4 189.901 38.4ZM196.265 40V31.312H198.025V35.04H197.865C197.865 34.1547 197.982 33.4187 198.217 32.832C198.451 32.2347 198.798 31.7867 199.257 31.488C199.726 31.1893 200.307 31.04 201.001 31.04H201.097C202.131 31.04 202.915 31.376 203.449 32.048C203.982 32.7093 204.249 33.7013 204.249 35.024V40H202.025V34.832C202.025 34.2987 201.87 33.8667 201.561 33.536C201.262 33.2053 200.846 33.04 200.313 33.04C199.769 33.04 199.326 33.2107 198.985 33.552C198.654 33.8827 198.489 34.3307 198.489 34.896V40H196.265ZM210.096 40.112C209.296 40.112 208.634 40.0107 208.112 39.808C207.6 39.5947 207.216 39.2427 206.96 38.752C206.704 38.2507 206.576 37.5787 206.576 36.736L206.592 28.864H208.672L208.656 36.88C208.656 37.3067 208.768 37.6373 208.992 37.872C209.226 38.096 209.557 38.208 209.984 38.208H211.344V40.112H210.096ZM205.2 32.944V31.312H211.344V32.944H205.2ZM218.123 40V37.424H217.755V34.56C217.755 34.0587 217.632 33.6853 217.387 33.44C217.142 33.1947 216.763 33.072 216.251 33.072C215.984 33.072 215.664 33.0773 215.291 33.088C214.918 33.0987 214.539 33.1147 214.155 33.136C213.782 33.1467 213.446 33.1627 213.147 33.184V31.296C213.392 31.2747 213.67 31.2533 213.979 31.232C214.288 31.2107 214.603 31.2 214.923 31.2C215.254 31.1893 215.563 31.184 215.851 31.184C216.747 31.184 217.488 31.3013 218.075 31.536C218.672 31.7707 219.12 32.1387 219.419 32.64C219.728 33.1413 219.883 33.7973 219.883 34.608V40H218.123ZM215.323 40.224C214.694 40.224 214.139 40.112 213.659 39.888C213.19 39.664 212.822 39.344 212.555 38.928C212.299 38.512 212.171 38.0107 212.171 37.424C212.171 36.784 212.326 36.2613 212.635 35.856C212.955 35.4507 213.398 35.1467 213.963 34.944C214.539 34.7413 215.211 34.64 215.979 34.64H217.995V35.968H215.947C215.435 35.968 215.04 36.096 214.763 36.352C214.496 36.5973 214.363 36.9173 214.363 37.312C214.363 37.7067 214.496 38.0267 214.763 38.272C215.04 38.5173 215.435 38.64 215.947 38.64C216.256 38.64 216.539 38.5867 216.795 38.48C217.062 38.3627 217.28 38.1707 217.451 37.904C217.632 37.6267 217.734 37.2533 217.755 36.784L218.299 37.408C218.246 38.016 218.096 38.528 217.851 38.944C217.616 39.36 217.286 39.68 216.859 39.904C216.443 40.1173 215.931 40.224 215.323 40.224ZM225.801 40.304C225.044 40.304 224.388 40.176 223.833 39.92C223.289 39.664 222.831 39.3227 222.457 38.896C222.095 38.4693 221.823 37.9893 221.641 37.456C221.46 36.9227 221.369 36.3787 221.369 35.824V35.52C221.369 34.9333 221.46 34.3733 221.641 33.84C221.833 33.296 222.116 32.816 222.489 32.4C222.863 31.9733 223.321 31.6373 223.865 31.392C224.42 31.136 225.06 31.008 225.785 31.008C226.543 31.008 227.22 31.1573 227.817 31.456C228.415 31.744 228.889 32.1493 229.241 32.672C229.604 33.1947 229.807 33.8027 229.849 34.496H227.689C227.636 34.048 227.444 33.6747 227.113 33.376C226.793 33.0773 226.351 32.928 225.785 32.928C225.295 32.928 224.884 33.0453 224.553 33.28C224.233 33.5147 223.993 33.84 223.833 34.256C223.673 34.6613 223.593 35.1307 223.593 35.664C223.593 36.176 223.668 36.64 223.817 37.056C223.977 37.472 224.217 37.7973 224.537 38.032C224.868 38.2667 225.289 38.384 225.801 38.384C226.185 38.384 226.516 38.3147 226.793 38.176C227.071 38.0373 227.289 37.8453 227.449 37.6C227.62 37.3547 227.727 37.0773 227.769 36.768H229.929C229.887 37.472 229.679 38.0907 229.305 38.624C228.943 39.1467 228.457 39.5573 227.849 39.856C227.252 40.1547 226.569 40.304 225.801 40.304ZM235.167 40.112C234.367 40.112 233.706 40.0107 233.183 39.808C232.671 39.5947 232.287 39.2427 232.031 38.752C231.775 38.2507 231.647 37.5787 231.647 36.736L231.663 28.864H233.743L233.727 36.88C233.727 37.3067 233.839 37.6373 234.063 37.872C234.298 38.096 234.628 38.208 235.055 38.208H236.415V40.112H235.167ZM230.271 32.944V31.312H236.415V32.944H230.271Z" fill="#1E1E1E"/>
<path d="M336.744 40V30H339.016V40H336.744ZM333.368 30.32V28.32H342.392V30.32H333.368ZM346.808 40.304C346.04 40.304 345.362 40.1813 344.776 39.936C344.189 39.6907 343.693 39.36 343.288 38.944C342.882 38.5173 342.573 38.0373 342.36 37.504C342.157 36.9707 342.056 36.416 342.056 35.84V35.504C342.056 34.9067 342.162 34.3413 342.376 33.808C342.6 33.264 342.914 32.784 343.32 32.368C343.736 31.9413 344.237 31.6107 344.824 31.376C345.41 31.1307 346.072 31.008 346.808 31.008C347.544 31.008 348.205 31.1307 348.792 31.376C349.378 31.6107 349.874 31.9413 350.28 32.368C350.696 32.784 351.01 33.264 351.224 33.808C351.437 34.3413 351.544 34.9067 351.544 35.504V35.84C351.544 36.416 351.437 36.9707 351.224 37.504C351.021 38.0373 350.717 38.5173 350.312 38.944C349.906 39.36 349.41 39.6907 348.824 39.936C348.237 40.1813 347.565 40.304 346.808 40.304ZM346.808 38.4C347.352 38.4 347.81 38.2827 348.184 38.048C348.557 37.8027 348.84 37.4773 349.032 37.072C349.224 36.656 349.32 36.1867 349.32 35.664C349.32 35.1307 349.218 34.6613 349.016 34.256C348.824 33.84 348.536 33.5147 348.152 33.28C347.778 33.0347 347.33 32.912 346.808 32.912C346.285 32.912 345.832 33.0347 345.448 33.28C345.074 33.5147 344.786 33.84 344.584 34.256C344.381 34.6613 344.28 35.1307 344.28 35.664C344.28 36.1867 344.376 36.656 344.568 37.072C344.77 37.4773 345.058 37.8027 345.432 38.048C345.805 38.2827 346.264 38.4 346.808 38.4ZM357.347 40.304C356.579 40.304 355.902 40.1813 355.315 39.936C354.728 39.6907 354.232 39.36 353.827 38.944C353.422 38.5173 353.112 38.0373 352.899 37.504C352.696 36.9707 352.595 36.416 352.595 35.84V35.504C352.595 34.9067 352.702 34.3413 352.915 33.808C353.139 33.264 353.454 32.784 353.859 32.368C354.275 31.9413 354.776 31.6107 355.363 31.376C355.95 31.1307 356.611 31.008 357.347 31.008C358.083 31.008 358.744 31.1307 359.331 31.376C359.918 31.6107 360.414 31.9413 360.819 32.368C361.235 32.784 361.55 33.264 361.763 33.808C361.976 34.3413 362.083 34.9067 362.083 35.504V35.84C362.083 36.416 361.976 36.9707 361.763 37.504C361.56 38.0373 361.256 38.5173 360.851 38.944C360.446 39.36 359.95 39.6907 359.363 39.936C358.776 40.1813 358.104 40.304 357.347 40.304ZM357.347 38.4C357.891 38.4 358.35 38.2827 358.723 38.048C359.096 37.8027 359.379 37.4773 359.571 37.072C359.763 36.656 359.859 36.1867 359.859 35.664C359.859 35.1307 359.758 34.6613 359.555 34.256C359.363 33.84 359.075 33.5147 358.691 33.28C358.318 33.0347 357.87 32.912 357.347 32.912C356.824 32.912 356.371 33.0347 355.987 33.28C355.614 33.5147 355.326 33.84 355.123 34.256C354.92 34.6613 354.819 35.1307 354.819 35.664C354.819 36.1867 354.915 36.656 355.107 37.072C355.31 37.4773 355.598 37.8027 355.971 38.048C356.344 38.2827 356.803 38.4 357.347 38.4ZM363.822 40V28.32H366.046V40H363.822ZM362.734 29.984V28.32H366.046V29.984H362.734ZM371.417 40.272C370.223 40.272 369.284 40.0213 368.601 39.52C367.929 39.008 367.577 38.304 367.545 37.408H369.545C369.577 37.7067 369.743 37.9787 370.041 38.224C370.34 38.4693 370.809 38.592 371.449 38.592C371.983 38.592 372.404 38.496 372.713 38.304C373.033 38.112 373.193 37.8507 373.193 37.52C373.193 37.232 373.071 37.0027 372.825 36.832C372.591 36.6613 372.185 36.5493 371.609 36.496L370.841 36.416C369.871 36.3093 369.124 36.032 368.601 35.584C368.079 35.136 367.817 34.5387 367.817 33.792C367.817 33.1947 367.967 32.6933 368.265 32.288C368.564 31.8827 368.975 31.5787 369.497 31.376C370.031 31.1627 370.639 31.056 371.321 31.056C372.388 31.056 373.252 31.2907 373.913 31.76C374.575 32.2293 374.921 32.9173 374.953 33.824H372.953C372.932 33.5253 372.783 33.2693 372.505 33.056C372.228 32.8427 371.828 32.736 371.305 32.736C370.836 32.736 370.473 32.8267 370.217 33.008C369.961 33.1893 369.833 33.424 369.833 33.712C369.833 33.9893 369.935 34.2027 370.137 34.352C370.351 34.5013 370.692 34.6027 371.161 34.656L371.929 34.736C372.953 34.8427 373.753 35.1253 374.329 35.584C374.916 36.0427 375.209 36.6613 375.209 37.44C375.209 38.016 375.049 38.5173 374.729 38.944C374.42 39.36 373.983 39.6853 373.417 39.92C372.852 40.1547 372.185 40.272 371.417 40.272Z" fill="#1E1E1E"/>
</svg>
