<svg width="31" height="119" viewBox="0 0 31 119" fill="none" xmlns="http://www.w3.org/2000/svg">
<path d="M0 105H31C31 112.732 24.732 119 17 119H14C6.26801 119 0 112.732 0 105Z" fill="#FF77E6"/>
<path d="M0 28H31V107H0V28Z" fill="black"/>
<path d="M12.8734 4.74473C14.0157 2.68128 16.9826 2.68216 18.1236 4.74629L31 28.0397V31.0001H0V28.0001L12.8734 4.74473Z" fill="black"/>
<path d="M12.8732 4.76096C14.014 2.69327 16.9859 2.69326 18.1267 4.76095L23.5 14.5H7.5L12.8732 4.76096Z" fill="#FF77E6"/>
<path d="M9 99H0V32.6611C0.995274 34.0753 2.63927 35 4.5 35C6.36073 35 8.00473 34.0753 9 32.6611V99Z" fill="#FFAE00"/>
<path d="M20 99H11V32.6611C11.9953 34.0753 13.6393 35 15.5 35C17.3607 35 19.0047 34.0753 20 32.6611V99Z" fill="#FFAE00"/>
<path d="M31 99H22V31.6611C22.9953 33.0753 24.6393 34 26.5 34C28.3607 34 30.0047 33.0753 31 31.6611V99Z" fill="#FFAE00"/>
</svg>
